HIERARCHY
ROOT Hips
{
	OFFSET 0.000000 0.000000 0.000000 
	CHANNELS 6 Xposition Yposition Zposition Zrotation Yrotation Xrotation
	JOINT LeftUpLeg
	{
		OFFSET 1.363060 -1.794630 0.839290 
		CHANNELS 3 Zrotation Yrotation Xrotation
		JOINT LeftLeg
		{
			OFFSET 2.448110 -6.726130 0.000000 
			CHANNELS 3 Zrotation Yrotation Xrotation
			JOINT LeftFoot
			{
				OFFSET 2.562200 -7.039590 0.000000 
				CHANNELS 3 Zrotation Yrotation Xrotation
				JOINT LeftToeBase
				{
					OFFSET 0.157640 -0.433110 2.322550 
					CHANNELS 3 Zrotation Yrotation Xrotation
					End Site
					{
						OFFSET 0.000000 0.000000 0.000000 
					}
				}
			}
		}
	}
	JOINT RightUpLeg
	{
		OFFSET -1.305520 -1.794630 0.839290 
		CHANNELS 3 Zrotation Yrotation Xrotation
		JOINT RightLeg
		{
			OFFSET -2.542530 -6.985550 0.000000 
			CHANNELS 3 Zrotation Yrotation Xrotation
			JOINT RightFoot
			{
				OFFSET -2.568260 -7.056230 0.000000 
				CHANNELS 3 Zrotation Yrotation Xrotation
				JOINT RightToeBase
				{
					OFFSET -0.164730 -0.452590 2.363150 
					CHANNELS 3 Zrotation Yrotation Xrotation
					End Site
					{
						OFFSET 0.000000 0.000000 0.000000 
					}
				}
			}
		}
	}
	JOINT Spine
	{
		OFFSET 0.028270 2.035590 -0.193380 
		CHANNELS 3 Zrotation Yrotation Xrotation
		JOINT Spine1
		{
			OFFSET 0.056720 2.048850 -0.042750 
			CHANNELS 3 Zrotation Yrotation Xrotation
			JOINT Neck1
			{
				OFFSET -0.054170 1.746240 0.172020 
				CHANNELS 3 Zrotation Yrotation Xrotation
				JOINT Head
				{
					OFFSET 0.104070 1.761360 -0.123970 
					CHANNELS 3 Zrotation Yrotation Xrotation
					End Site
					{
						OFFSET 0.000000 0.000000 0.000000 
					}
				}
			}
			JOINT LeftArm
			{
				OFFSET 3.362410 1.200890 -0.311210 
				CHANNELS 3 Zrotation Yrotation Xrotation
				JOINT LeftForeArm
				{
					OFFSET 4.983000 -0.000000 -0.000000 
					CHANNELS 3 Zrotation Yrotation Xrotation
					JOINT LeftHand
					{
						OFFSET 3.483560 -0.000000 -0.000000 
						CHANNELS 3 Zrotation Yrotation Xrotation
						JOINT LeftHandIndex1
						{
							OFFSET 0.715260 -0.000000 -0.000000 
							CHANNELS 3 Zrotation Yrotation Xrotation
							End Site
							{
								OFFSET 0.000000 0.000000 0.000000 
							}
						}
					}
				}
			}
			JOINT RightArm
			{
				OFFSET -3.136600 1.374050 -0.404650 
				CHANNELS 3 Zrotation Yrotation Xrotation
				JOINT RightForeArm
				{
					OFFSET -5.241900 -0.000000 -0.000000 
					CHANNELS 3 Zrotation Yrotation Xrotation
					JOINT RightHand
					{
						OFFSET -3.444170 -0.000000 -0.000000 
						CHANNELS 3 Zrotation Yrotation Xrotation
						JOINT RightHandIndex1
						{
							OFFSET -0.622530 -0.000000 -0.000000 
							CHANNELS 3 Zrotation Yrotation Xrotation
							End Site
							{
								OFFSET 0.000000 0.000000 0.000000 
							}
						}
					}
				}
			}
		}
	}
}
MOTION
Frames: 7
Frame Time: 0.041667
9.918315 16.290848 34.979197 179.927406 -2.521925 -140.168449 -11.202922 -26.357315 -60.243560 6.226135 21.406686 53.803709 0.524329 -17.111284 -31.125688 0.350600 -3.804500 -10.527300 17.064676 27.056821 -59.773056 -5.162054 -21.778608 51.845325 -3.811821 2.464112 -39.039629 -2.632700 10.075400 -29.221100 1.485667 -0.243363 -5.033171 -0.313480 -0.289579 7.185400 10.599550 0.062131 -14.097654 2.061400 -2.200400 -7.196200 -99.804503 -4.451559 17.262876 9.998922 -10.536402 -1.185273 -1.283364 1.266735 11.962331 -7.125000 0.000000 0.000000 95.291102 -3.981761 2.386538 -8.484425 16.531231 -1.724853 1.176885 3.900412 10.542546 7.125000 0.000000 0.000000 
9.919410 16.212026 34.947668 179.892255 -2.402646 -140.155898 -11.297294 -26.141753 -60.750554 6.596090 21.671391 54.993046 0.478005 -17.837205 -31.291143 0.270500 -3.345500 -9.242200 16.791920 27.279310 -60.447297 -5.584384 -22.148098 53.213124 -3.930546 2.255215 -39.518014 -2.755000 10.287600 -29.913000 1.477144 -0.162327 -5.023267 -0.328507 -0.250847 7.142501 10.482838 0.146384 -14.170361 2.023900 -2.158900 -7.243300 -99.954337 -4.868077 16.805743 9.837584 -10.241585 -1.129571 -1.277953 1.266064 12.654722 -7.125000 0.000000 0.000000 95.258127 -3.651326 2.730094 -8.509866 16.547829 -1.733886 1.166230 3.897780 10.382949 7.125000 0.000000 0.000000 
9.919410 16.137693 34.906067 179.840344 -2.304424 -140.400446 -11.581703 -26.017629 -60.869773 6.965528 21.916234 56.162661 0.548080 -18.063705 -31.654817 0.334800 -3.718300 -10.285500 16.798030 27.301482 -60.560821 -5.937605 -22.408208 54.311500 -4.042601 2.176235 -39.935427 -2.899000 10.529700 -30.709600 1.417441 0.050779 -4.966568 -0.458031 -0.144034 7.104035 10.520641 -0.022591 -14.347608 2.066600 -2.250700 -7.341900 -100.016770 -5.358492 16.757067 9.739757 -10.046612 -1.096193 -1.267705 1.263444 13.237003 -7.125000 0.000000 0.000000 95.473060 -3.329838 2.837700 -8.631927 16.725298 -1.780319 1.166793 3.899680 10.191507 7.125000 0.000000 0.000000 
9.921380 16.059747 34.863372 179.784061 -2.045366 -140.405615 -11.798013 -25.809992 -61.266241 7.353356 22.169142 57.369647 0.557507 -18.424242 -31.833386 0.300700 -3.525900 -9.746500 16.518435 27.495666 -61.080637 -6.360684 -22.723487 55.601968 -4.180112 2.478743 -40.348023 -2.931900 10.584000 -30.889400 1.330316 0.275123 -4.930675 -0.589324 -0.040130 7.176186 10.643631 -0.219296 -14.569473 2.134700 -2.378700 -7.433800 -99.984521 -5.687709 17.199047 9.756020 -10.050718 -1.100326 -1.262812 1.250124 13.294623 -7.125000 0.000000 0.000000 95.736795 -2.899232 3.223933 -8.724587 16.861347 -1.820362 1.198834 3.867279 9.954083 7.125000 0.000000 0.000000 
9.924446 15.996908 34.816189 179.601917 -1.948874 -140.680671 -12.168507 -25.827517 -61.246461 7.711057 22.367030 58.460722 0.504994 -19.018714 -31.885899 0.198700 -2.870500 -7.918500 16.519205 27.369851 -60.865026 -6.644351 -22.880831 56.423778 -4.313420 2.807266 -40.759064 -2.975400 10.655200 -31.125500 1.303063 0.205532 -4.882733 -0.623364 -0.080564 7.205509 10.671327 -0.279419 -14.616437 2.134800 -2.429400 -7.429700 -100.029333 -5.857277 17.707060 9.850007 -10.180876 -1.125748 -1.283498 1.213577 12.941121 -7.125000 0.000000 0.000000 95.818206 -2.417329 4.480897 -8.797182 16.964832 -1.855226 1.264830 3.816559 9.791516 7.125000 0.000000 0.000000 
9.927730 15.933960 34.759371 179.517460 -1.815800 -141.061559 -12.506926 -25.780238 -61.040601 8.051654 22.536428 59.483172 0.474142 -19.516604 -31.969480 0.116000 -2.196000 -6.047600 16.608823 27.439076 -60.593984 -6.987243 -23.078652 57.430725 -4.474391 2.768906 -41.370123 -3.129900 10.902400 -31.951400 1.288792 0.120944 -4.902299 -0.677645 -0.118711 6.976965 10.636650 -0.202756 -14.389071 2.086500 -2.361800 -7.384200 -100.119553 -5.813191 17.744614 9.811807 -10.104548 -1.116143 -1.308068 1.251695 13.257197 -7.125000 0.000000 0.000000 95.914084 -2.374406 6.225217 -8.899811 17.138993 -1.906113 1.390915 3.795479 9.965508 7.125000 0.000000 0.000000 
9.928715 15.872764 34.701349 179.470516 -1.630366 -141.326246 -12.761584 -25.724936 -60.907565 8.366842 22.691715 60.426175 0.470907 -19.933959 -32.133914 0.079900 -1.822900 -5.016400 16.609694 27.633491 -60.498198 -7.320817 -23.274890 58.404188 -4.576820 2.703041 -41.727530 -3.161400 10.951800 -32.117500 1.290705 -0.006346 -4.953605 -0.721143 -0.176770 6.728153 10.666430 0.034101 -14.155941 2.109700 -2.202200 -7.310800 -100.276816 -5.708122 17.599919 9.790259 -10.056886 -1.111685 -1.328927 1.304553 13.798557 -7.125000 0.000000 0.000000 95.835529 -2.285498 7.495985 -9.005028 17.284344 -1.940250 1.395511 3.698213 9.723952 7.125000 0.000000 0.000000 
